<svg width="1936" height="528" viewBox="0 0 1936 528" fill="none" xmlns="http://www.w3.org/2000/svg">
<path d="M472 236C472 366.339 366.339 472 236 472C105.661 472 0 366.339 0 236C0 105.661 105.661 0 236 0C366.339 0 472 105.661 472 236ZM75.2096 236C75.2096 324.802 147.198 396.79 236 396.79C324.802 396.79 396.79 324.802 396.79 236C396.79 147.198 324.802 75.2096 236 75.2096C147.198 75.2096 75.2096 147.198 75.2096 236Z" fill="#000A38"/>
<path d="M231.958 313.047C229.772 310.556 230.019 306.765 232.509 304.58L273.094 268.958C275.584 266.772 279.375 267.019 281.561 269.509L467.585 481.451C469.771 483.941 469.524 487.732 467.034 489.918L426.449 525.54C423.959 527.726 420.168 527.479 417.982 524.988L231.958 313.047Z" fill="#7065EF"/>
<path d="M667.26 143.455C667.26 135.723 673.528 129.455 681.26 129.455H714.659C722.391 129.455 728.659 135.723 728.659 143.455V293.641C728.659 312.616 724.143 329.147 715.112 343.233C706.08 357.236 693.485 368.091 677.327 375.797C661.17 383.42 642.402 387.232 621.024 387.232C599.398 387.232 580.506 383.42 564.348 375.797C548.19 368.091 535.637 357.236 526.688 343.233C517.739 329.147 513.265 312.616 513.265 293.641V143.455C513.265 135.723 519.533 129.455 527.265 129.455H560.788C568.52 129.455 574.788 135.723 574.788 143.455V288.297C574.788 297.08 576.694 304.91 580.506 311.788C584.4 318.665 589.827 324.051 596.788 327.945C603.748 331.84 611.827 333.787 621.024 333.787C630.222 333.787 638.259 331.84 645.136 327.945C652.097 324.051 657.524 318.665 661.418 311.788C665.313 304.91 667.26 297.08 667.26 288.297V143.455Z" fill="#000A38"/>
<path d="M814.743 129.455C822.475 129.455 828.743 135.723 828.743 143.455V370C828.743 377.732 822.475 384 814.743 384H781.22C773.488 384 767.22 377.732 767.22 370V143.455C767.22 135.723 773.488 129.455 781.22 129.455H814.743Z" fill="#000A38"/>
<path d="M880.496 384C872.764 384 866.496 377.732 866.496 370V353.514C866.496 350.548 867.438 347.659 869.186 345.263L973.934 201.67C980.682 192.418 974.074 179.419 962.623 179.419H880.621C872.889 179.419 866.621 173.151 866.621 165.419V143.455C866.621 135.723 872.889 129.455 880.621 129.455H1053.97C1061.7 129.455 1067.97 135.723 1067.97 143.455V159.941C1067.97 162.906 1067.03 165.795 1065.28 168.191L960.533 311.785C953.785 321.036 960.392 334.036 971.844 334.036H1053.85C1061.58 334.036 1067.85 340.304 1067.85 348.036V370C1067.85 377.732 1061.58 384 1053.85 384H880.496Z" fill="#000A38"/>
<path d="M1111.27 179.419C1103.54 179.419 1097.27 173.151 1097.27 165.419V143.455C1097.27 135.723 1103.54 129.455 1111.27 129.455H1298.42C1306.15 129.455 1312.42 135.723 1312.42 143.455V165.419C1312.42 173.151 1306.15 179.419 1298.42 179.419H1249.23C1241.5 179.419 1235.23 185.687 1235.23 193.419V370C1235.23 377.732 1228.97 384 1221.23 384H1188.58C1180.85 384 1174.58 377.732 1174.58 370V193.419C1174.58 185.687 1168.31 179.419 1160.58 179.419H1111.27Z" fill="#000A38"/>
<path d="M1389.99 129.455C1397.72 129.455 1403.99 135.723 1403.99 143.455V370C1403.99 377.732 1397.72 384 1389.99 384H1356.46C1348.73 384 1342.46 377.732 1342.46 370V143.455C1342.46 135.723 1348.73 129.455 1356.46 129.455H1389.99Z" fill="#000A38"/>
<path d="M1682.86 256.727C1682.86 284.734 1677.48 308.473 1666.71 327.945C1655.93 347.417 1641.35 362.208 1622.96 372.317C1604.64 382.426 1584.09 387.48 1561.31 387.48C1538.44 387.48 1517.85 382.384 1499.54 372.192C1481.22 362.001 1466.68 347.21 1455.91 327.821C1445.22 308.349 1439.88 284.651 1439.88 256.727C1439.88 228.721 1445.22 204.981 1455.91 185.509C1466.68 166.037 1481.22 151.247 1499.54 141.138C1517.85 131.029 1538.44 125.974 1561.31 125.974C1584.09 125.974 1604.64 131.029 1622.96 141.138C1641.35 151.247 1655.93 166.037 1666.71 185.509C1677.48 204.981 1682.86 228.721 1682.86 256.727ZM1619.97 256.727C1619.97 240.155 1617.61 226.152 1612.89 214.717C1608.25 203.283 1601.54 194.624 1592.75 188.741C1584.05 182.858 1573.57 179.916 1561.31 179.916C1549.13 179.916 1538.65 182.858 1529.86 188.741C1521.08 194.624 1514.33 203.283 1509.6 214.717C1504.96 226.152 1502.64 240.155 1502.64 256.727C1502.64 273.299 1504.96 287.303 1509.6 298.737C1514.33 310.172 1521.08 318.831 1529.86 324.714C1538.65 330.597 1549.13 333.538 1561.31 333.538C1573.57 333.538 1584.05 330.597 1592.75 324.714C1601.54 318.831 1608.25 310.172 1612.89 298.737C1617.61 287.303 1619.97 273.299 1619.97 256.727Z" fill="#000A38"/>
<path d="M1921.42 129.455C1929.15 129.455 1935.42 135.723 1935.42 143.455V370C1935.42 377.732 1929.15 384 1921.42 384H1890.57C1885.97 384 1881.66 381.737 1879.04 377.947L1782.24 237.548C1782.04 237.261 1781.71 237.089 1781.37 237.089V237.089C1780.78 237.089 1780.31 237.564 1780.31 238.149V370C1780.31 377.732 1774.04 384 1766.31 384H1732.78C1725.05 384 1718.78 377.732 1718.78 370V143.455C1718.78 135.723 1725.05 129.455 1732.78 129.455H1764.34C1768.96 129.455 1773.29 131.739 1775.9 135.558L1871.5 275.514C1871.75 275.891 1872.18 276.116 1872.64 276.116V276.116C1873.4 276.116 1874.02 275.497 1874.02 274.734V143.455C1874.02 135.723 1880.29 129.455 1888.02 129.455H1921.42Z" fill="#000A38"/>
</svg>
