<svg width="472" height="530" viewBox="0 0 472 530" fill="none" xmlns="http://www.w3.org/2000/svg">
<path d="M472 236C472 366.339 366.339 472 236 472C105.661 472 0 366.339 0 236C0 105.661 105.661 0 236 0C366.339 0 472 105.661 472 236ZM75.2096 236C75.2096 324.802 147.198 396.79 236 396.79C324.802 396.79 396.79 324.802 396.79 236C396.79 147.198 324.802 75.2096 236 75.2096C147.198 75.2096 75.2096 147.198 75.2096 236Z" fill="#000A38"/>
<rect x="228" y="308.537" width="66" height="294" rx="6" transform="rotate(-41.2739 228 308.537)" fill="#7065EF"/>
</svg>
